<svg xmlns="http://www.w3.org/2000/svg" width="512" height="512" viewBox="0 0 512 512">
  <defs>
    <linearGradient id="shield_bg" x1="0%" y1="0%" x2="0%" y2="100%">
      <stop offset="0%" style="stop-color:#357ab8;stop-opacity:1" />
      <stop offset="100%" style="stop-color:#1c3d61;stop-opacity:1" />
    </linearGradient>
    
    <linearGradient id="shield_bevel" x1="0%" y1="0%" x2="0%" y2="100%">
      <stop offset="0%" style="stop-color:#2a5f94;stop-opacity:1" />
      <stop offset="100%" style="stop-color:#10283f;stop-opacity:1" />
    </linearGradient>
    
    <radialGradient id="central_glow" cx="50%" cy="50%" r="50%">
      <stop offset="0%" style="stop-color:#4ac34a;stop-opacity:0.3" />
      <stop offset="100%" style="stop-color:#1c3d61;stop-opacity:0" />
    </radialGradient>

    <path id="shield_shape" d="M 256,16 C 180,64 120,72 32,72 L 32,256 C 32,400 120,464 256,496 C 392,464 480,400 480,256 L 480,72 C 392,72 332,64 256,16 Z" />
    
    <mask id="shield_halfs_mask">
      <use href="#shield_shape" fill="white"/>
      <rect x="256" y="0" width="256" height="512" fill="black"/>
    </mask>
  </defs>

  <g style="filter:drop-shadow(0px 8px 10px rgba(0,0,0,0.3))">
    <use href="#shield_shape" fill="url(#shield_bevel)" />

    <path d="M 256,40 C 188,80 134,88 56,88 L 56,256 C 56,384 134,440 256,468 C 378,440 456,384 456,256 L 456,88 C 378,88 324,80 256,40 Z" fill="url(#shield_bg)" />

    <path d="M 256,40 C 188,80 134,88 56,88 L 56,256 C 56,384 134,440 256,468 L 256,40 Z" fill="#152e4a" opacity="0.4" />

    <path d="M 256,40 C 188,80 134,88 56,88 L 56,256 C 56,384 134,440 256,468 C 378,440 456,384 456,256 L 456,88 C 378,88 324,80 256,40 Z" stroke="#3d8bd1" stroke-width="6" fill="none" opacity="0.6"/>

    <g transform="translate(256, 260)">
      <circle r="140" fill="url(#central_glow)" opacity="0.7" />
      
      <g transform="translate(0, 15)">
        <path d="M -90,-45 L 0,0 L 0,90 M 90,-45 L 0,0" stroke="#f0f0f0" stroke-width="12" stroke-linecap="round" stroke-linejoin="round" fill="none" />
        <circle cx="-90" cy="-45" r="22" fill="#4ac34a" stroke="#f0f0f0" stroke-width="6" />
        <circle cx="90" cy="-45" r="22" fill="#4ac34a" stroke="#f0f0f0" stroke-width="6" />
        <circle cx="0" cy="0" r="22" fill="#4ac34a" stroke="#f0f0f0" stroke-width="6" />
        <circle cx="0" cy="90" r="22" fill="#4ac34a" stroke="#f0f0f0" stroke-width="6" />
      </g>
      
      <path d="M -50,-120 L -10,-80 L 70,-160" stroke="#f0f0f0" stroke-width="20" stroke-linecap="round" stroke-linejoin="round" fill="none" transform="translate(0, 15)" />
    </g>
  </g>
</svg>
